<?xml version="1.0" encoding="utf-8"?>
<!-- Generator: Adobe Illustrator 26.1.0, SVG Export Plug-In . SVG Version: 6.00 Build 0)  -->
<svg version="1.1" id="Layer_1" xmlns="http://www.w3.org/2000/svg" xmlns:xlink="http://www.w3.org/1999/xlink" x="0px" y="0px"
	 viewBox="0 0 120 83.4" style="enable-background:new 0 0 120 83.4;" xml:space="preserve">
<g>
	<path d="M5.17,7.26v38.59c0,8.6,0.62,9.17,6.04,9.17c1.68,0,2.62,0.96,2.62,6.69c0,4.39-0.75,6.5-2.18,6.5H1.87
		C0.62,68.21,0,65.92,0,61.52V7.26C0,4.2,0.75,1.53,1.74,1.53H3.3C4.42,1.53,5.17,3.82,5.17,7.26z"/>
	<path d="M21.78,69.16c-4.74,0-8.41-8.98-8.41-25.79c0-17.96,4.17-25.79,8.54-25.79c3.99,0,8.6,6.69,8.6,25.6
		C30.5,57.89,27.63,69.16,21.78,69.16z M21.96,59.04c2.37,0,4.11-6.69,4.11-15.86c0-8.6-1.5-15.28-4.11-15.28
		c-2.31,0-4.17,5.35-4.17,15.28C17.79,52.35,19.47,59.04,21.96,59.04z"/>
	<path d="M40.28,69.16c-4.74,0-8.41-8.98-8.41-25.79c0-17.96,4.17-25.79,8.54-25.79c3.99,0,8.6,6.69,8.6,25.6
		C49,57.89,46.14,69.16,40.28,69.16z M40.47,59.04c2.37,0,4.11-6.69,4.11-15.86c0-8.6-1.5-15.28-4.11-15.28
		c-2.31,0-4.17,5.35-4.17,15.28C36.29,52.35,37.98,59.04,40.47,59.04z"/>
	<path d="M64.74,60.76c0.37,1.91,0.56,3.44,0.56,4.39c0,2.1-0.62,3.06-1.87,3.06c-1.37,0-2.43-1.53-3.05-4.59l-1.62-8.22
		c-0.62-3.06-1.25-4.59-1.87-4.59c-0.93,0-1.93,2.48-1.93,9.55c0,5.16-0.31,7.83-2.06,7.83c-1.68,0-2.18-2.1-2.18-6.5V8.41
		c0-4.01,0.56-6.11,2.12-6.11c1.43,0,2.12,1.91,2.12,6.11c0,20.44-0.06,23.12,1.12,23.12c0.37,0,0.81-0.38,1.93-3.82
		c0,0,0.31-1.15,1-3.44c0.69-2.1,1.12-3.25,1.31-3.44c0.5-0.96,1.25-1.34,2.24-1.34h0.44c0.93,0,1.37,0.96,1.37,2.68
		c0,0.95-0.19,2.1-0.62,3.63l-2.18,7.64c-0.56,2.1-0.69,4.2-0.69,4.97c0,1.72,0.12,3.06,0.31,4.01L64.74,60.76z"/>
	<path d="M68.91,11.85c-1.81,0-2.43-2.48-2.43-5.73C66.48,1.34,67.6,0,68.91,0c1.81,0,2.49,2.48,2.49,5.73
		C71.4,10.51,70.28,11.85,68.91,11.85z M71.46,25.79v35.73c0,4.59-0.81,6.88-2.49,6.88c-2.12,0-2.49-2.87-2.49-8.41V24.26
		c0-4.2,0.75-6.88,1.87-6.88h1.12C70.78,17.39,71.46,20.25,71.46,25.79z"/>
	<path d="M87.79,33.15v29.81c0,3.63-0.87,5.35-1.93,5.35h-0.68c-1,0-1.74-1.72-1.74-5.35V42.32c0-8.79-0.93-13.18-2.68-13.18
		c-1.87,0-2.74,4.59-2.74,13.76v20.06c0,3.63-0.87,5.35-1.93,5.35h-0.69c-1.06,0-1.74-1.91-1.74-5.92V24.55
		c0-3.63,0.69-5.54,2.18-5.54c1.25,0,2.24,1.34,3.05,1.34c1.5,0,1.93-2.48,4.17-2.48C85.92,17.86,87.79,22.07,87.79,33.15z"/>
	<path d="M104.3,65.25c0,12.04-1.81,18.15-7.41,18.15c-5.55,0-6.85-7.45-6.85-11.27c0-2.48,0.75-3.82,2.06-3.82
		c2.55,0,1.81,7.64,5.05,7.64c1.87,0,3.11-3.63,3.11-8.6c0-3.63-0.44-5.16-1.5-5.16c-0.5,0-2.37,1.34-3.49,1.34
		c-3.99,0-5.79-10.89-5.79-22.74c0-13.76,2.24-23.31,6.29-23.31c1.62,0,2.99,2.29,3.99,2.29c0.87,0,1.25-0.95,2.49-0.95
		c1.62,0,2.06,1.72,2.06,8.6V65.25z M96.95,54.93c1.99,0,3.49-5.35,3.49-12.61c0-9.17-1.25-16.24-3.49-16.24
		c-1.87,0-3.43,4.59-3.43,13.76C93.52,49.39,94.83,54.93,96.95,54.93z"/>
	<path d="M117.45,33.15l-3.36,8.02c-1,2.48-1.68,4.59-2.68,4.59c-0.75,0-1.5-1.34-1.5-3.63c0-3.44,0.5-4.97,2.62-9.94
		c1.81-4.01,2.74-7.26,2.74-11.65c0-4.59-1.18-8.41-3.05-8.41c-1.06,0-2.31,1.34-3.05,4.59c-0.93,4.01-1.37,4.97-1.99,4.97
		c-0.87,0-1.99-1.34-2.06-4.59c-0.06-2.29,1.62-13.95,7.1-13.95c6.35,0,7.79,9.55,7.79,15.29C120,25.51,119.13,29.14,117.45,33.15z
		 M111.25,69.07c-1.59,0-2.21-1.34-2.21-6.69c0-4.59,0.5-7.07,2.12-7.07s2.18,2.1,2.18,7.07C113.33,66.78,112.55,69.07,111.25,69.07
		z"/>
</g>
</svg>
